<svg width="172" height="52" viewBox="0 0 172 52" fill="none" xmlns="http://www.w3.org/2000/svg">
<path d="M23.392 51.36C21.712 51.36 20.344 50.856 19.288 49.848C18.28 48.84 17.776 47.496 17.776 45.816V9.384H6.112C2.56 9.384 0.784 7.848 0.784 4.776C0.784 1.752 2.56 0.239997 6.112 0.239997H40.672C44.224 0.239997 46 1.752 46 4.776C46 7.848 44.224 9.384 40.672 9.384H29.008V45.816C29.008 47.496 28.504 48.84 27.496 49.848C26.488 50.856 25.12 51.36 23.392 51.36Z" fill="#EF5DA8"/>
<path d="M52.0291 51.288C50.8451 51.288 49.8691 50.904 49.1011 50.136C48.3331 49.336 47.9491 48.344 47.9491 47.16C47.9491 45.976 48.3331 45 49.1011 44.232C49.8691 43.432 50.8451 43.032 52.0291 43.032C53.2131 43.032 54.1891 43.432 54.9571 44.232C55.7251 45 56.1091 45.976 56.1091 47.16C56.1091 48.344 55.7251 49.336 54.9571 50.136C54.1891 50.904 53.2131 51.288 52.0291 51.288ZM70.2042 51.384C68.2522 51.384 66.5562 51.224 65.1162 50.904C63.6762 50.584 62.4122 50.072 61.3242 49.368C60.8442 49.08 60.4762 48.696 60.2202 48.216C59.9642 47.736 59.8362 47.192 59.8362 46.584C59.8362 45.848 60.0442 45.24 60.4602 44.76C60.8762 44.248 61.3882 43.992 61.9962 43.992C62.4122 43.992 62.8282 44.072 63.2442 44.232C63.6602 44.36 64.0922 44.52 64.5402 44.712C65.4362 45.128 66.3162 45.464 67.1802 45.72C68.0442 45.944 69.1162 46.056 70.3962 46.056C71.5162 46.056 72.3802 45.88 72.9882 45.528C73.6282 45.176 73.9482 44.696 73.9482 44.088C73.9482 43.64 73.8042 43.288 73.5162 43.032C73.2602 42.744 72.7642 42.488 72.0282 42.264C71.2922 42.04 70.1242 41.768 68.5242 41.448C65.6762 40.904 63.6282 40.088 62.3802 39C61.1322 37.912 60.5082 36.392 60.5082 34.44C60.5082 33 60.9402 31.704 61.8042 30.552C62.7002 29.4 63.9162 28.504 65.4522 27.864C66.9882 27.192 68.7162 26.856 70.6362 26.856C72.0122 26.856 73.3562 27.032 74.6682 27.384C75.9802 27.736 77.1482 28.232 78.1722 28.872C79.1642 29.48 79.6602 30.376 79.6602 31.56C79.6602 32.328 79.4522 32.968 79.0362 33.48C78.6202 33.992 78.1082 34.248 77.5002 34.248C76.7642 34.248 75.8842 33.96 74.8602 33.384C74.0602 32.968 73.3242 32.664 72.6522 32.472C72.0122 32.248 71.2442 32.136 70.3482 32.136C69.3562 32.136 68.5722 32.328 67.9962 32.712C67.4202 33.064 67.1322 33.56 67.1322 34.2C67.1322 34.872 67.4682 35.384 68.1402 35.736C68.8122 36.088 70.1082 36.44 72.0282 36.792C74.1722 37.208 75.8522 37.72 77.0682 38.328C78.2842 38.904 79.1642 39.64 79.7082 40.536C80.2522 41.432 80.5242 42.568 80.5242 43.944C80.5242 46.216 79.5802 48.024 77.6922 49.368C75.8362 50.712 73.3402 51.384 70.2042 51.384ZM97.5364 46.008C98.4964 46.072 99.2004 46.312 99.6484 46.728C100.096 47.144 100.32 47.752 100.32 48.552C100.32 49.48 99.9524 50.184 99.2164 50.664C98.4804 51.144 97.4244 51.336 96.0484 51.24L94.7044 51.144C89.1044 50.696 86.3044 47.768 86.3044 42.36V32.856H84.3844C83.3284 32.856 82.5284 32.632 81.9844 32.184C81.4404 31.704 81.1684 31.032 81.1684 30.168C81.1684 29.272 81.4404 28.6 81.9844 28.152C82.5284 27.672 83.3284 27.432 84.3844 27.432H86.3044V23.688C86.3044 22.632 86.6244 21.8 87.2644 21.192C87.9364 20.584 88.8324 20.28 89.9524 20.28C91.0724 20.28 91.9524 20.584 92.5924 21.192C93.2324 21.8 93.5524 22.632 93.5524 23.688V27.432H96.9124C99.0884 27.432 100.176 28.344 100.176 30.168C100.176 31.032 99.9044 31.704 99.3604 32.184C98.8164 32.632 98.0004 32.856 96.9124 32.856H93.5524V42.888C93.5524 43.848 93.7764 44.584 94.2244 45.096C94.6724 45.576 95.3284 45.848 96.1924 45.912L97.5364 46.008ZM114.323 51.384C111.827 51.384 109.635 50.888 107.747 49.896C105.859 48.872 104.403 47.448 103.379 45.624C102.355 43.768 101.843 41.592 101.843 39.096C101.843 36.6 102.355 34.44 103.379 32.616C104.403 30.76 105.859 29.336 107.747 28.344C109.635 27.352 111.827 26.856 114.323 26.856C116.819 26.856 119.011 27.352 120.899 28.344C122.787 29.336 124.243 30.76 125.267 32.616C126.291 34.44 126.803 36.6 126.803 39.096C126.803 41.592 126.291 43.768 125.267 45.624C124.243 47.448 122.787 48.872 120.899 49.896C119.011 50.888 116.819 51.384 114.323 51.384ZM114.323 45.864C117.843 45.864 119.603 43.608 119.603 39.096C119.603 36.824 119.139 35.128 118.211 34.008C117.315 32.888 116.019 32.328 114.323 32.328C110.803 32.328 109.043 34.584 109.043 39.096C109.043 43.608 110.803 45.864 114.323 45.864Z" fill="#333333"/>
<path d="M145.278 26.952C146.238 26.888 146.99 27.112 147.534 27.624C148.11 28.104 148.398 28.84 148.398 29.832C148.398 30.888 148.142 31.672 147.63 32.184C147.118 32.696 146.206 33.016 144.894 33.144L143.454 33.288C141.694 33.48 140.414 34.056 139.614 35.016C138.846 35.976 138.462 37.208 138.462 38.712V47.88C138.462 49 138.11 49.848 137.406 50.424C136.734 51 135.886 51.288 134.862 51.288C133.806 51.288 132.926 51 132.222 50.424C131.55 49.848 131.214 49 131.214 47.88V30.264C131.214 29.208 131.566 28.392 132.27 27.816C132.974 27.24 133.822 26.952 134.814 26.952C135.774 26.952 136.574 27.24 137.214 27.816C137.854 28.36 138.174 29.128 138.174 30.12V31.416C138.75 30.04 139.614 28.984 140.766 28.248C141.95 27.512 143.23 27.096 144.606 27L145.278 26.952ZM168.923 43.992C169.563 43.992 170.075 44.248 170.459 44.76C170.875 45.272 171.083 45.928 171.083 46.728C171.083 47.272 170.923 47.784 170.603 48.264C170.283 48.712 169.835 49.096 169.259 49.416C168.171 49.992 166.907 50.472 165.467 50.856C164.027 51.208 162.699 51.384 161.483 51.384C158.923 51.384 156.683 50.888 154.763 49.896C152.875 48.904 151.419 47.496 150.395 45.672C149.371 43.816 148.859 41.64 148.859 39.144C148.859 36.744 149.355 34.616 150.347 32.76C151.339 30.904 152.715 29.464 154.475 28.44C156.235 27.384 158.235 26.856 160.475 26.856C162.619 26.856 164.491 27.336 166.091 28.296C167.723 29.224 168.987 30.568 169.883 32.328C170.779 34.056 171.227 36.088 171.227 38.424C171.227 39.128 171.051 39.672 170.699 40.056C170.379 40.408 169.915 40.584 169.307 40.584H155.867C156.091 42.472 156.667 43.848 157.595 44.712C158.523 45.544 159.851 45.96 161.579 45.96C162.507 45.96 163.339 45.848 164.075 45.624C164.811 45.4 165.627 45.096 166.523 44.712C166.971 44.52 167.403 44.36 167.819 44.232C168.235 44.072 168.603 43.992 168.923 43.992ZM160.667 31.848C159.291 31.848 158.187 32.296 157.355 33.192C156.523 34.056 156.027 35.32 155.867 36.984H165.131C165.035 35.288 164.603 34.008 163.835 33.144C163.099 32.28 162.043 31.848 160.667 31.848Z" fill="black"/>
</svg>
